<?xml version="1.0" encoding="UTF-8"?>
<svg xmlns="http://www.w3.org/2000/svg" xmlns:xlink="http://www.w3.org/1999/xlink" viewBox="0 0 239.28 240">
  <defs>
    <style>
      .cls-1 {
        isolation: isolate;
      }

      .cls-2 {
        fill: url(#linear-gradient);
        mix-blend-mode: screen;
        opacity: .37;
      }
    </style>
    <linearGradient id="linear-gradient" x1="-618.95" y1="250.94" x2="-449.19" y2="81.18" gradientTransform="translate(-414 286.05) rotate(-180)" gradientUnits="userSpaceOnUse">
      <stop offset="0" stop-color="#2c7033"/>
      <stop offset=".14" stop-color="#2d7939"/>
      <stop offset=".36" stop-color="#33934a"/>
      <stop offset=".66" stop-color="#3bbd67"/>
      <stop offset="1" stop-color="#46f78e"/>
      <stop offset="1" stop-color="#47f88f"/>
    </linearGradient>
  </defs>
  <g class="cls-1">
    <g id="Layer_2" data-name="Layer 2">
      <g id="BACKGROUND">
        <path class="cls-2" d="M237.22,141.11s.09,0,.14.01c.42.08.7.48.62.9-10.53,56.77-60.15,97.97-117.98,97.97-.43,0-.78-.35-.78-.78s.35-.78.78-.78c57.08,0,106.06-40.67,116.46-96.7.07-.37.4-.63.76-.63ZM0,120c0,50.76,32.14,96.24,79.97,113.16.4.14.85-.07.99-.47.14-.4-.07-.85-.47-.99C33.27,214.99,1.55,170.11,1.55,120,1.55,54.69,54.69,1.55,120,1.55c60.55,0,111.17,45.32,117.74,105.42.05.43.43.74.86.69.43-.05.73-.43.69-.85C232.62,45.92,181.34,0,120,0,53.83,0,0,53.83,0,120ZM25.06,120c0,1.29,1.04,2.33,2.33,2.33s2.33-1.04,2.33-2.33c0-49.78,40.5-90.28,90.28-90.28s90.28,40.5,90.28,90.28-40.5,90.28-90.28,90.28c-20.33,0-39.53-6.6-55.52-19.08-1.01-.79-2.47-.61-3.27.4-.79,1.01-.61,2.48.4,3.27,16.81,13.13,37,20.07,58.38,20.07,52.35,0,94.94-42.59,94.94-94.94S172.35,25.06,120,25.06,25.06,67.65,25.06,120ZM45.41,120c0,41.13,33.46,74.58,74.58,74.58,28.79,0,55.3-16.85,67.55-42.92.36-.78.03-1.7-.74-2.06-.77-.36-1.7-.03-2.06.74-11.73,24.99-37.15,41.14-64.74,41.14-39.42,0-71.48-32.07-71.48-71.48S80.58,48.52,120,48.52c23.58,0,45.64,11.63,58.99,31.11.48.71,1.45.89,2.16.4.71-.48.89-1.45.4-2.16-13.93-20.32-36.95-32.45-61.55-32.45-41.13,0-74.58,33.46-74.58,74.58Z"/>
      </g>
    </g>
  </g>
</svg>