<?xml version="1.0" encoding="UTF-8"?>
<svg xmlns="http://www.w3.org/2000/svg" xmlns:xlink="http://www.w3.org/1999/xlink" viewBox="0 0 334.98 335.98">
  <defs>
    <style>
      .cls-1 {
        fill: url(#linear-gradient);
        mix-blend-mode: screen;
        opacity: .2;
      }

      .cls-2 {
        isolation: isolate;
      }
    </style>
    <linearGradient id="linear-gradient" x1="1664.41" y1="-226.49" x2="1902.06" y2="-464.14" gradientTransform="translate(1951.33 -177.33) rotate(-180)" gradientUnits="userSpaceOnUse">
      <stop offset="0" stop-color="#2c7033"/>
      <stop offset=".14" stop-color="#2d7939"/>
      <stop offset=".36" stop-color="#33934a"/>
      <stop offset=".66" stop-color="#3bbd67"/>
      <stop offset="1" stop-color="#46f78e"/>
      <stop offset="1" stop-color="#47f88f"/>
    </linearGradient>
  </defs>
  <g class="cls-2">
    <g id="Layer_2" data-name="Layer 2">
      <g id="BACKGROUND">
        <path class="cls-1" d="M332.09,197.54c.07,0,.13,0,.2.02.59.11.98.68.87,1.27-14.74,79.47-84.21,137.15-165.16,137.15-.6,0-1.09-.49-1.09-1.09s.49-1.09,1.09-1.09c79.91,0,148.48-56.93,163.03-135.38.1-.52.55-.89,1.07-.89ZM0,167.99c0,71.07,44.99,134.73,111.95,158.42.56.2,1.19-.1,1.38-.66.2-.57-.1-1.19-.66-1.38C46.58,300.98,2.17,238.14,2.17,167.99,2.17,76.56,76.56,2.17,167.99,2.17c84.77,0,155.63,63.45,164.83,147.59.06.6.6,1.04,1.2.96.6-.07,1.03-.6.96-1.2C325.66,64.28,253.87,0,167.99,0,75.36,0,0,75.36,0,167.99ZM35.09,167.99c0,1.8,1.46,3.26,3.26,3.26s3.26-1.46,3.26-3.26c0-69.69,56.7-126.39,126.39-126.39s126.39,56.7,126.39,126.39-56.7,126.39-126.39,126.39c-28.46,0-55.34-9.24-77.72-26.71-1.42-1.11-3.46-.85-4.57.56-1.11,1.42-.86,3.47.56,4.57,23.54,18.38,51.8,28.09,81.73,28.09,73.28,0,132.9-59.62,132.9-132.9S241.27,35.09,167.99,35.09,35.09,94.71,35.09,167.99ZM63.58,167.99c0,57.57,46.84,104.41,104.41,104.41,40.31,0,77.42-23.58,94.56-60.08.51-1.09.04-2.38-1.04-2.89-1.08-.5-2.38-.04-2.89,1.04-16.43,34.98-52,57.59-90.63,57.59-55.18,0-100.07-44.89-100.07-100.07s44.89-100.07,100.07-100.07c33.02,0,63.89,16.28,82.59,43.55.68.99,2.03,1.24,3.02.56.99-.68,1.24-2.03.56-3.02-19.51-28.45-51.72-45.43-86.17-45.43-57.57,0-104.41,46.84-104.41,104.41Z"/>
      </g>
    </g>
  </g>
</svg>