<?xml version="1.0" encoding="UTF-8"?>
<svg id="Layer_2" data-name="Layer 2" xmlns="http://www.w3.org/2000/svg" xmlns:xlink="http://www.w3.org/1999/xlink" viewBox="0 0 203.26 203.86">
  <defs>
    <style>
      .cls-1 {
        fill: url(#linear-gradient);
      }
    </style>
    <linearGradient id="linear-gradient" x1="29.17" y1="174.04" x2="173.37" y2="29.83" gradientUnits="userSpaceOnUse">
      <stop offset="0" stop-color="#2c7033"/>
      <stop offset=".14" stop-color="#2d7939"/>
      <stop offset=".36" stop-color="#33934a"/>
      <stop offset=".66" stop-color="#3bbd67"/>
      <stop offset="1" stop-color="#46f78e"/>
      <stop offset="1" stop-color="#47f88f"/>
    </linearGradient>
  </defs>
  <g id="BACKGROUND">
    <path class="cls-1" d="M1.76,84s-.08,0-.12-.01c-.36-.07-.59-.41-.53-.77C10.06,35,52.2,0,101.33,0c.36,0,.66.29.66.66s-.29.66-.66.66C52.84,1.32,11.24,35.86,2.4,83.46c-.06.32-.34.54-.65.54ZM203.26,101.93c0-43.12-27.3-81.75-67.93-96.12-.34-.12-.72.06-.84.4-.12.34.06.72.4.84,40.11,14.19,67.05,52.32,67.05,94.88,0,55.48-45.13,100.61-100.61,100.61-51.43,0-94.43-38.5-100.01-89.55-.04-.36-.37-.63-.73-.58-.36.04-.62.36-.58.73,5.66,51.72,49.21,90.73,101.32,90.73,56.2,0,101.93-45.73,101.93-101.93ZM181.97,101.93c0-1.09-.88-1.98-1.98-1.98s-1.98.88-1.98,1.98c0,42.29-34.4,76.69-76.69,76.69S24.64,144.22,24.64,101.93,59.04,25.24,101.33,25.24c17.27,0,33.58,5.6,47.16,16.21.86.67,2.1.52,2.77-.34.67-.86.52-2.1-.34-2.77-14.28-11.15-31.43-17.05-49.59-17.05-44.47,0-80.64,36.18-80.64,80.64s36.18,80.64,80.64,80.64,80.64-36.18,80.64-80.64ZM164.68,101.93c0-34.93-28.42-63.35-63.35-63.35-24.46,0-46.98,14.31-57.38,36.46-.31.66-.03,1.44.63,1.75.66.31,1.44.03,1.75-.63,9.97-21.23,31.55-34.94,54.99-34.94,33.48,0,60.72,27.24,60.72,60.72s-27.24,60.72-60.72,60.72c-20.03,0-38.77-9.88-50.11-26.42-.41-.6-1.23-.75-1.83-.34-.6.41-.75,1.23-.34,1.83,11.84,17.26,31.38,27.57,52.29,27.57,34.93,0,63.35-28.42,63.35-63.35Z"/>
  </g>
</svg>