<?xml version="1.0" encoding="UTF-8"?>
<svg id="Layer_2" data-name="Layer 2" xmlns="http://www.w3.org/2000/svg" xmlns:xlink="http://www.w3.org/1999/xlink" viewBox="0 0 253.59 254.64">
  <defs>
    <style>
      .cls-1 {
        fill: url(#linear-gradient);
      }
    </style>
    <linearGradient id="linear-gradient" x1="36.25" y1="217.34" x2="216.34" y2="37.25" gradientUnits="userSpaceOnUse">
      <stop offset="0" stop-color="#2c7033"/>
      <stop offset=".14" stop-color="#2d7939"/>
      <stop offset=".36" stop-color="#33934a"/>
      <stop offset=".66" stop-color="#3bbd67"/>
      <stop offset="1" stop-color="#46f78e"/>
      <stop offset="1" stop-color="#47f88f"/>
    </linearGradient>
  </defs>
  <g id="BACKGROUND">
    <path class="cls-1" d="M.64,111.63s-.05,0-.08,0c-.35-.04-.6-.36-.55-.71C8.14,47.68,62.42,0,126.28,0c.35,0,.64.28.64.64s-.28.64-.64.64C63.06,1.27,9.32,48.48,1.27,111.08c-.04.32-.32.56-.63.56ZM253.59,127.32c0-51.33-30.56-97.39-77.85-117.35-.32-.14-.7.01-.83.34-.14.32.01.7.34.83,46.82,19.76,77.07,65.36,77.07,116.18,0,69.5-56.54,126.04-126.04,126.04-28.66,0-56.71-9.88-78.98-27.81-21.95-17.67-37.51-42.43-43.82-69.72-.08-.34-.42-.56-.76-.48-.34.08-.56.42-.48.76,6.37,27.57,22.09,52.58,44.26,70.43,22.5,18.11,50.84,28.09,79.78,28.09,70.2,0,127.32-57.11,127.32-127.32ZM221.14,187.95c.57-.89.31-2.07-.58-2.64-.89-.57-2.07-.31-2.64.58-20.12,31.42-54.39,50.18-91.65,50.18-59.97,0-108.76-48.79-108.76-108.76,0-30.05,11.99-58.02,33.76-78.76.76-.73.79-1.94.07-2.7-.73-.77-1.94-.79-2.7-.07C26.11,67.26,13.7,96.21,13.7,127.32c0,62.08,50.5,112.58,112.58,112.58,38.57,0,74.04-19.42,94.87-51.94ZM233.79,160.79c3.36-10.8,5.06-22.06,5.06-33.48,0-62.08-50.5-112.58-112.58-112.58-10.6,0-21.09,1.47-31.19,4.38-1.01.29-1.6,1.35-1.31,2.36.29,1.01,1.35,1.6,2.36,1.31,9.75-2.8,19.88-4.23,30.13-4.23,59.97,0,108.76,48.79,108.76,108.76,0,11.03-1.64,21.91-4.89,32.34-.31,1.01.25,2.08,1.26,2.39.19.06.38.09.57.09.81,0,1.57-.52,1.82-1.34ZM51.5,175.63c1.82-1.07,2.43-3.41,1.36-5.23-7.65-13.01-11.69-27.91-11.69-43.09,0-46.93,38.18-85.12,85.11-85.12,27.88,0,54.03,13.69,69.96,36.62,1.2,1.73,3.58,2.16,5.32.96,1.73-1.2,2.16-3.58.96-5.32-17.35-24.98-45.85-39.9-76.23-39.9-51.15,0-92.76,41.61-92.76,92.76,0,16.54,4.41,32.78,12.75,46.96.71,1.21,1.99,1.88,3.3,1.88.66,0,1.32-.17,1.93-.53ZM130.1,216.25c0-2.11-1.71-3.82-3.82-3.82-21.95,0-42.79-8.33-58.68-23.46-1.53-1.45-3.95-1.39-5.4.13-1.46,1.53-1.4,3.95.13,5.4,17.31,16.48,40.03,25.56,63.94,25.56,2.11,0,3.82-1.71,3.82-3.82ZM167.86,210.25c31.57-15.86,51.18-47.64,51.18-82.94,0-10.52-1.75-20.84-5.19-30.68-.7-1.99-2.88-3.04-4.87-2.34-1.99.7-3.04,2.88-2.34,4.87,3.16,9.02,4.76,18.5,4.76,28.15,0,32.39-18,61.56-46.96,76.11-1.89.95-2.65,3.24-1.7,5.13.67,1.34,2.02,2.11,3.42,2.11.58,0,1.16-.13,1.71-.41ZM145.39,185.62c9.23-3.02,17.41-8.05,24.32-14.97,20.26-20.26,23.79-52.46,8.39-76.57-.19-.3-.58-.38-.88-.19-.3.19-.38.58-.19.88,15.08,23.61,11.62,55.14-8.22,74.98-6.77,6.77-14.78,11.7-23.81,14.66-.33.11-.52.47-.41.8.09.27.34.44.61.44.07,0,.13,0,.2-.03ZM115.21,187.04c.07-.34-.16-.68-.51-.75-11.8-2.29-22.56-8.01-31.09-16.54-23.49-23.49-23.49-61.71,0-85.2,21.47-21.46,55.67-23.6,79.58-4.97.28.22.68.17.89-.11.22-.28.17-.68-.11-.89-24.41-19.03-59.34-16.85-81.26,5.07-23.99,23.99-23.99,63.01,0,87,8.72,8.72,19.7,14.56,31.75,16.89.04,0,.08.01.12.01.3,0,.56-.21.62-.52Z"/>
  </g>
</svg>