<?xml version="1.0" encoding="UTF-8"?>
<svg id="Layer_2" data-name="Layer 2" xmlns="http://www.w3.org/2000/svg" xmlns:xlink="http://www.w3.org/1999/xlink" viewBox="0 0 913.9 660.04">
  <defs>
    <style>
      .cls-1 {
        fill: url(#linear-gradient-13);
      }

      .cls-2 {
        fill: url(#linear-gradient-10);
      }

      .cls-3 {
        fill: url(#linear-gradient-12);
      }

      .cls-4 {
        fill: url(#linear-gradient-4);
      }

      .cls-5 {
        fill: url(#linear-gradient-3);
      }

      .cls-6 {
        fill: url(#linear-gradient-5);
      }

      .cls-7 {
        fill: url(#linear-gradient-8);
      }

      .cls-8 {
        fill: url(#linear-gradient);
        filter: url(#drop-shadow-1);
      }

      .cls-9 {
        fill: url(#linear-gradient-14);
      }

      .cls-10 {
        fill: url(#linear-gradient-7);
      }

      .cls-11 {
        fill: url(#linear-gradient-9);
      }

      .cls-12 {
        fill: url(#linear-gradient-11);
      }

      .cls-13 {
        fill: url(#linear-gradient-6);
      }

      .cls-14 {
        fill: url(#linear-gradient-2);
        filter: url(#drop-shadow-2);
      }
    </style>
    <linearGradient id="linear-gradient" x1="584.32" y1="182.55" x2="666.05" y2="100.82" gradientUnits="userSpaceOnUse">
      <stop offset="0" stop-color="#2c9333"/>
      <stop offset=".17" stop-color="#2e9c3b"/>
      <stop offset=".46" stop-color="#35b653"/>
      <stop offset=".82" stop-color="#40e079"/>
      <stop offset="1" stop-color="#47f88f"/>
    </linearGradient>
    <filter id="drop-shadow-1" x="541.74" y="79.37" width="147" height="147" filterUnits="userSpaceOnUse">
      <feOffset dx="-10" dy="11"/>
      <feGaussianBlur result="blur" stdDeviation="5"/>
      <feFlood flood-color="#0b5632" flood-opacity=".6"/>
      <feComposite in2="blur" operator="in"/>
      <feComposite in="SourceGraphic"/>
    </filter>
    <linearGradient id="linear-gradient-2" x1="137.81" y1="253.39" x2="187.91" y2="203.29" xlink:href="#linear-gradient"/>
    <filter id="drop-shadow-2" x="101.74" y="188.37" width="102" height="102" filterUnits="userSpaceOnUse">
      <feOffset dx="-10" dy="11"/>
      <feGaussianBlur result="blur-2" stdDeviation="5"/>
      <feFlood flood-color="#0b5632" flood-opacity=".6"/>
      <feComposite in2="blur-2" operator="in"/>
      <feComposite in="SourceGraphic"/>
    </filter>
    <linearGradient id="linear-gradient-3" x1="1258.42" y1="-1034.08" x2="1333.65" y2="-1109.31" gradientTransform="translate(728.36 -1621.03) rotate(135)" xlink:href="#linear-gradient"/>
    <linearGradient id="linear-gradient-4" x1="351.64" y1="-384.7" x2="426.87" y2="-459.93" gradientTransform="translate(403.34 1070.48) rotate(-45)" gradientUnits="userSpaceOnUse">
      <stop offset="0" stop-color="#47f88f"/>
      <stop offset=".18" stop-color="#40e079"/>
      <stop offset=".54" stop-color="#35b653"/>
      <stop offset=".83" stop-color="#2e9c3b"/>
      <stop offset="1" stop-color="#2c9333"/>
    </linearGradient>
    <linearGradient id="linear-gradient-5" x1="-235.06" y1="-484.98" x2="-159.83" y2="-560.21" gradientTransform="translate(1254.37 293.62) rotate(-45)" xlink:href="#linear-gradient"/>
    <linearGradient id="linear-gradient-6" x1="639.48" y1="-1385.22" x2="735.2" y2="-1480.93" gradientTransform="translate(-443.89 -1121.63) rotate(135)" xlink:href="#linear-gradient"/>
    <linearGradient id="linear-gradient-7" x1="-406.57" y1="-213.04" x2="-331.34" y2="-288.27" gradientTransform="translate(1254.37 293.62) rotate(-45)" xlink:href="#linear-gradient"/>
    <linearGradient id="linear-gradient-8" x1="1625.97" y1="-855.56" x2="1748.67" y2="-978.26" gradientTransform="translate(1085.22 -1373.4) rotate(135)" gradientUnits="userSpaceOnUse">
      <stop offset="0" stop-color="#47c15a"/>
      <stop offset=".03" stop-color="#45bd58"/>
      <stop offset=".46" stop-color="#379344"/>
      <stop offset=".8" stop-color="#2f7937"/>
      <stop offset="1" stop-color="#2c7033"/>
    </linearGradient>
    <linearGradient id="linear-gradient-9" x1="482.41" y1="-124.09" x2="605.11" y2="-246.79" gradientTransform="translate(573.77 922.56) rotate(-45)" xlink:href="#linear-gradient"/>
    <linearGradient id="linear-gradient-10" x1="1442.8" y1="-1281.06" x2="1628.2" y2="-1466.46" gradientTransform="translate(245.47 -1528.2) rotate(135)" xlink:href="#linear-gradient-8"/>
    <linearGradient id="linear-gradient-11" x1="412.93" y1="153.13" x2="437.39" y2="128.66" xlink:href="#linear-gradient"/>
    <linearGradient id="linear-gradient-12" x1="1321.27" y1="-1405.02" x2="1345.73" y2="-1429.48" gradientTransform="translate(2138.56 -1349.36) rotate(-180)" xlink:href="#linear-gradient"/>
    <linearGradient id="linear-gradient-13" x1="105.53" y1="457.04" x2="129.99" y2="432.58" xlink:href="#linear-gradient"/>
    <linearGradient id="linear-gradient-14" x1="391.95" y1="414.19" x2="406.45" y2="399.69" xlink:href="#linear-gradient"/>
  </defs>
  <g id="BACKGROUND">
    <path class="cls-8" d="M625.18,83.89c-31.92,0-57.79,25.88-57.79,57.79s25.88,57.79,57.79,57.79,57.79-25.88,57.79-57.79-25.88-57.79-57.79-57.79ZM625.18,194.96c-29.42,0-53.28-23.85-53.28-53.28s23.85-53.28,53.28-53.28,53.28,23.85,53.28,53.28-23.85,53.28-53.28,53.28Z"/>
    <path class="cls-14" d="M162.86,192.91c-19.57,0-35.43,15.86-35.43,35.43s15.86,35.43,35.43,35.43,35.43-15.86,35.43-35.43-15.86-35.43-35.43-35.43ZM162.86,261c-18.04,0-32.66-14.62-32.66-32.66s14.62-32.66,32.66-32.66,32.66,14.62,32.66,32.66-14.62,32.66-32.66,32.66Z"/>
    <path class="cls-5" d="M517.16,102.73L619.26.63c.84-.84,2.19-.84,3.03,0h0c.84.84.84,2.19,0,3.03l-102.1,102.1c-.84.84-2.19.84-3.03,0h0c-.84-.84-.84-2.19,0-3.03Z"/>
    <path class="cls-4" d="M432.52,447.08l-102.1,102.1c-.84.84-2.19.84-3.03,0h0c-.84-.84-.84-2.19,0-3.03l102.1-102.1c.84-.84,2.19-.84,3.03,0h0c.84.84.84,2.19,0,3.03Z"/>
    <path class="cls-6" d="M797.79,14.17l-102.1,102.1c-.84.84-2.19.84-3.03,0h0c-.84-.84-.84-2.19,0-3.03l102.1-102.1c.84-.84,2.19-.84,3.03,0h0c.84.84.84,2.19,0,3.03Z"/>
    <path class="cls-13" d="M16.54,440.75l129.91-129.91c1.06-1.06,2.79-1.06,3.85,0h0c1.06,1.06,1.06,2.79,0,3.85L20.39,444.6c-1.06,1.06-2.79,1.06-3.85,0h0c-1.06-1.06-1.06-2.79,0-3.85Z"/>
    <path class="cls-10" d="M868.81,327.73l-102.1,102.1c-.84.84-2.19.84-3.03,0h0c-.84-.84-.84-2.19,0-3.03l102.1-102.1c.84-.84,2.19-.84,3.03,0h0c.84.84.84,2.19,0,3.03Z"/>
    <path class="cls-7" d="M454.73,548.85l166.54-166.54c1.36-1.36,3.58-1.36,4.94,0h0c1.36,1.36,1.36,3.58,0,4.94l-166.54,166.54c-1.36,1.36-3.58,1.36-4.94,0h0c-1.36-1.36-1.36-3.58,0-4.94Z"/>
    <path class="cls-11" d="M912.88,326.14l-166.54,166.54c-1.36,1.36-3.58,1.36-4.94,0h0c-1.36-1.36-1.36-3.58,0-4.94l166.54-166.54c1.36-1.36,3.58-1.36,4.94,0h0c1.36,1.36,1.36,3.58,0,4.94Z"/>
    <path class="cls-2" d="M1.55,651.02l251.63-251.63c2.06-2.06,5.4-2.06,7.47,0h0c2.06,2.06,2.06,5.4,0,7.47L9.01,658.49c-2.06,2.06-5.4,2.06-7.47,0h0c-2.06-2.06-2.06-5.4,0-7.47Z"/>
    <path class="cls-12" d="M425.16,116.43l-24.46,24.46,24.46,24.46,24.46-24.46-24.46-24.46ZM406.36,140.9l18.81-18.81,18.81,18.81-18.81,18.81-18.81-18.81Z"/>
    <path class="cls-3" d="M805.06,92.35l24.46-24.46-24.46-24.46-24.46,24.46,24.46,24.46ZM823.86,67.89l-18.81,18.81-18.81-18.81,18.81-18.81,18.81,18.81Z"/>
    <path class="cls-1" d="M117.76,420.34l-24.46,24.46,24.46,24.46,24.46-24.46-24.46-24.46ZM98.96,444.81l18.81-18.81,18.81,18.81-18.81,18.81-18.81-18.81Z"/>
    <path class="cls-9" d="M399.2,392.45l-14.49,14.49,14.49,14.49,14.49-14.49-14.49-14.49ZM388.06,406.94l11.14-11.14,11.14,11.14-11.14,11.14-11.14-11.14Z"/>
  </g>
</svg>