<?xml version="1.0" standalone="no"?>
<!DOCTYPE svg PUBLIC "-//W3C//DTD SVG 20010904//EN"
 "http://www.w3.org/TR/2001/REC-SVG-20010904/DTD/svg10.dtd">
<svg version="1.0" xmlns="http://www.w3.org/2000/svg"
 width="1024.000000pt" height="1024.000000pt" viewBox="0 0 1024.000000 1024.000000"
 preserveAspectRatio="xMidYMid meet">
<metadata>
Created by potrace 1.14, written by Peter Selinger 2001-2017
</metadata>
<g transform="translate(0.000000,1024.000000) scale(0.100000,-0.100000)"
fill="#000000" stroke="none">
<path d="M924 10095 c-51 -127 -62 -148 -92 -165 -108 -64 -300 -235 -401
-358 -202 -247 -343 -564 -390 -879 -8 -50 -11 -1111 -11 -3564 0 -3868 -5
-3576 65 -3820 84 -291 230 -538 447 -758 263 -265 530 -410 928 -503 l95 -22
2353 -3 c1536 -2 2351 -7 2347 -13 -4 -7 515 -10 1493 -10 l1498 0 55 136 54
136 85 58 c193 134 350 293 482 490 124 186 212 396 266 634 l27 121 3 3455
c2 2429 0 3489 -8 3569 -47 502 -302 960 -700 1261 -213 160 -420 256 -710
326 l-115 28 -2363 3 c-1539 2 -2361 7 -2357 13 4 7 -517 10 -1493 10 l-1499
0 -59 -145z"/>
</g>
</svg>
